<?xml version="1.0" encoding="UTF-8" standalone="no"?>
<svg width="259px" height="140px" viewBox="0 0 259 140" version="1.1" xmlns="http://www.w3.org/2000/svg" xmlns:xlink="http://www.w3.org/1999/xlink" xmlns:sketch="http://www.bohemiancoding.com/sketch/ns">
    <!-- Generator: Sketch 3.4.2 (15855) - http://www.bohemiancoding.com/sketch -->
    <title>signals</title>
    <desc>Created with Sketch.</desc>
    <defs></defs>
    <g id="Welcome" stroke="none" stroke-width="1" fill="none" fill-rule="evenodd" sketch:type="MSPage">
        <g id="signals" sketch:type="MSArtboardGroup">
            <path d="M2.46195652,66.5 L256.598523,66.5" id="Line" stroke-opacity="0.5" stroke="#333333" stroke-linecap="square" sketch:type="MSShapeGroup"></path>
            <path d="M2.46195652,33.5 L256.598523,33.5" id="Line-Copy" stroke-opacity="0.5" stroke="#333333" stroke-linecap="square" sketch:type="MSShapeGroup"></path>
            <path d="M2.46195652,99.5 L256.598523,99.5" id="Line-Copy-2" stroke-opacity="0.5" stroke="#333333" stroke-linecap="square" sketch:type="MSShapeGroup"></path>
            <path d="M12,67.322172 C12,67.322172 13.7957073,40.8805319 17.6084747,46.7183552 C21.4212421,52.5561785 20.9165405,90.6283494 24.4821962,90.6283507 C28.0478519,90.6283519 27.1366821,66.792076 27.1366821,66.792076 C27.1366821,66.792076 27.6706355,28.1649947 30.0815025,43.2039315 C32.4923695,58.2428682 30.7363921,80.3444871 35.6310371,92.9540059 C40.5256822,105.563525 43.5089227,53.8802907 43.5089227,53.8802907 C43.5089227,53.8802907 44.5183259,20.8451575 49.3693116,70.3222899 C54.2202974,119.799422 53.1768399,55.5811094 53.1768399,55.5811094 C53.1768399,55.5811094 53.5736618,31.8237807 63.9160156,80.306139 C74.2583694,128.788497 73.7987778,68.059795 73.7987778,68.059795 C73.7987778,68.059795 73.0160133,28.0950678 82.9559785,37.4067113 C92.8959438,46.7183548 94.4614729,80.3061407 94.4614729,80.3061407 C94.4614729,80.3061407 95.8112795,114.297701 107.854759,71.4366194 C119.898239,28.5755374 112.315373,26.3694372 121.140625,66.2710029" id="Path-20" stroke="#3C763D" sketch:type="MSShapeGroup"></path>
            <g id="Group" sketch:type="MSLayerGroup" transform="translate(136.000000, 35.000000)" stroke="#D0011B" stroke-linecap="square">
                <path d="M0.5,32.5 L3.5,32.5" id="Line" sketch:type="MSShapeGroup"></path>
                <path d="M3.5,14.5 L6.5,14.5" id="Line-Copy-3" sketch:type="MSShapeGroup"></path>
                <path d="M6.5,11.5 L9.5,11.5" id="Line-Copy-4" sketch:type="MSShapeGroup"></path>
                <path d="M9.5,29.5 L12.5,29.5" id="Line-Copy-5" sketch:type="MSShapeGroup"></path>
                <path d="M12.5,54.5 L15.5,54.5" id="Line-Copy-6" sketch:type="MSShapeGroup"></path>
                <path d="M15.5,51.5 L18.5,51.5" id="Line-Copy-7" sketch:type="MSShapeGroup"></path>
                <path d="M18.5,5.5 L21.5,5.5" id="Line-Copy-8" sketch:type="MSShapeGroup"></path>
                <path d="M21.5,42.5 L24.5,42.5" id="Line-Copy-9" sketch:type="MSShapeGroup"></path>
                <path d="M24.5,57.5 L27.5,57.5" id="Line-Copy-10" sketch:type="MSShapeGroup"></path>
                <path d="M27.5,58.5 L30.5,58.5" id="Line-Copy-11" sketch:type="MSShapeGroup"></path>
                <path d="M30.5,42.5 L33.5,42.5" id="Line-Copy-12" sketch:type="MSShapeGroup"></path>
                <path d="M33.5,8.5 L36.5,8.5" id="Line-Copy-13" sketch:type="MSShapeGroup"></path>
                <path d="M36.5,19.5 L39.5,19.5" id="Line-Copy-14" sketch:type="MSShapeGroup"></path>
                <path d="M39.5,46.5 L42.5,46.5" id="Line-Copy-15" sketch:type="MSShapeGroup"></path>
                <path d="M42.5,16.5 L45.5,16.5" id="Line-Copy-16" sketch:type="MSShapeGroup"></path>
                <path d="M45.5,17.5 L48.5,17.5" id="Line-Copy-17" sketch:type="MSShapeGroup"></path>
                <path d="M48.5,27.5 L51.5,27.5" id="Line-Copy-18" sketch:type="MSShapeGroup"></path>
                <path d="M51.5,39.5 L54.5,39.5" id="Line-Copy-19" sketch:type="MSShapeGroup"></path>
                <path d="M54.5,52.5 L57.5,52.5" id="Line-Copy-20" sketch:type="MSShapeGroup"></path>
                <path d="M57.5,62.5 L60.5,62.5" id="Line-Copy-21" sketch:type="MSShapeGroup"></path>
                <path d="M60.5,63.5 L63.5,63.5" id="Line-Copy-22" sketch:type="MSShapeGroup"></path>
                <path d="M3.5,32.5 L3.5,14.4722436" id="Line" sketch:type="MSShapeGroup"></path>
                <path d="M9.5,29.5 L9.5,11.4722436" id="Line-Copy-39" sketch:type="MSShapeGroup"></path>
                <path d="M12.5,54.5 L12.5,29.4722436" id="Line-Copy-40" sketch:type="MSShapeGroup"></path>
                <path d="M15.5,54.5 L15.5,51.5" id="Line-Copy-41" sketch:type="MSShapeGroup"></path>
                <path d="M18.5,51.5 L18.5,5.5" id="Line-Copy-42" sketch:type="MSShapeGroup"></path>
                <path d="M6.5,14.5 L6.5,11.5" id="Line" sketch:type="MSShapeGroup"></path>
                <path d="M24.5,57.5 L24.5,42.5" id="Line-Copy-44" sketch:type="MSShapeGroup"></path>
                <path d="M27.5,58.5 L27.5,57.5" id="Line-Copy-45" sketch:type="MSShapeGroup"></path>
                <path d="M30.5,58.5 L30.5,42.5" id="Line-Copy-46" sketch:type="MSShapeGroup"></path>
                <path d="M33.5,42.5 L33.5,8.5" id="Line-Copy-47" sketch:type="MSShapeGroup"></path>
                <path d="M36.5,19.5 L36.5,8.5" id="Line-Copy-48" sketch:type="MSShapeGroup"></path>
                <path d="M39.5,46.5 L39.5,19.5" id="Line-Copy-49" sketch:type="MSShapeGroup"></path>
                <path d="M42.5,46.5 L42.5,16.5" id="Line-Copy-50" sketch:type="MSShapeGroup"></path>
                <path d="M45.5,17.5 L45.5,16.5" id="Line-Copy-51" sketch:type="MSShapeGroup"></path>
                <path d="M69.5,3.5 L69.5,1.5" id="Line-Copy-59" sketch:type="MSShapeGroup"></path>
                <path d="M72.5,3.5 L72.5,1.5" id="Line-Copy-60" sketch:type="MSShapeGroup"></path>
                <path d="M75.5,7.5 L75.5,3.5" id="Line-Copy-61" sketch:type="MSShapeGroup"></path>
                <path d="M78.5,14.5 L78.5,7.5" id="Line-Copy-62" sketch:type="MSShapeGroup"></path>
                <path d="M81.5,27.5 L81.5,14.5" id="Line-Copy-63" sketch:type="MSShapeGroup"></path>
                <path d="M84.5,54.5 L84.5,27.5" id="Line-Copy-64" sketch:type="MSShapeGroup"></path>
                <path d="M87.5,57.5 L87.5,54.5" id="Line-Copy-65" sketch:type="MSShapeGroup"></path>
                <path d="M90.5,57.5 L90.5,54.5" id="Line-Copy-66" sketch:type="MSShapeGroup"></path>
                <path d="M93.5,54.5 L93.5,47.5" id="Line-Copy-67" sketch:type="MSShapeGroup"></path>
                <path d="M96.5,47.5 L96.5,37.5" id="Line-Copy-68" sketch:type="MSShapeGroup"></path>
                <path d="M99.5,37.5 L99.5,26.5" id="Line-Copy-69" sketch:type="MSShapeGroup"></path>
                <path d="M102.5,26.5 L102.5,13.5" id="Line-Copy-70" sketch:type="MSShapeGroup"></path>
                <path d="M105.5,13.5 L105.5,7.5" id="Line-Copy-71" sketch:type="MSShapeGroup"></path>
                <path d="M108.5,22.5 L108.5,7.5" id="Line-Copy-72" sketch:type="MSShapeGroup"></path>
                <path d="M48.5,27.5 L48.5,17.5" id="Line-Copy-52" sketch:type="MSShapeGroup"></path>
                <path d="M51.5,39.5 L51.5,27.5" id="Line-Copy-53" sketch:type="MSShapeGroup"></path>
                <path d="M66.5,15.5 L66.5,3.5" id="Line-Copy-58" sketch:type="MSShapeGroup"></path>
                <path d="M54.5,52.5 L54.5,39.5" id="Line-Copy-54" sketch:type="MSShapeGroup"></path>
                <path d="M57.5,62.5 L57.5,52.5" id="Line-Copy-55" sketch:type="MSShapeGroup"></path>
                <path d="M63.5,63.5 L63.5,15.5" id="Line-Copy-57" sketch:type="MSShapeGroup"></path>
                <path d="M60.5,63.5 L60.5,62.5" id="Line-Copy-56" sketch:type="MSShapeGroup"></path>
                <path d="M21.5,42.5 L21.5,5.5" id="Line-Copy-43" sketch:type="MSShapeGroup"></path>
                <path d="M63.5,15.5 L66.5,15.5" id="Line-Copy-23" sketch:type="MSShapeGroup"></path>
                <path d="M66.5,3.5 L69.5,3.5" id="Line-Copy-24" sketch:type="MSShapeGroup"></path>
                <path d="M69.5,1.5 L72.5,1.5" id="Line-Copy-25" sketch:type="MSShapeGroup"></path>
                <path d="M72.5,3.5 L75.5,3.5" id="Line-Copy-26" sketch:type="MSShapeGroup"></path>
                <path d="M75.5,7.5 L78.5,7.5" id="Line-Copy-27" sketch:type="MSShapeGroup"></path>
                <path d="M78.5,14.5 L81.5,14.5" id="Line-Copy-28" sketch:type="MSShapeGroup"></path>
                <path d="M81.5,27.5 L84.5,27.5" id="Line-Copy-29" sketch:type="MSShapeGroup"></path>
                <path d="M84.5,54.5 L87.5,54.5" id="Line-Copy-30" sketch:type="MSShapeGroup"></path>
                <path d="M87.5,57.5 L90.5,57.5" id="Line-Copy-31" sketch:type="MSShapeGroup"></path>
                <path d="M90.5,54.5 L93.5,54.5" id="Line-Copy-32" sketch:type="MSShapeGroup"></path>
                <path d="M93.5,47.5 L96.5,47.5" id="Line-Copy-33" sketch:type="MSShapeGroup"></path>
                <path d="M96.5,37.5 L99.5,37.5" id="Line-Copy-34" sketch:type="MSShapeGroup"></path>
                <path d="M99.5,26.5 L102.5,26.5" id="Line-Copy-35" sketch:type="MSShapeGroup"></path>
                <path d="M102.5,13.5 L105.5,13.5" id="Line-Copy-36" sketch:type="MSShapeGroup"></path>
                <path d="M105.5,7.5 L108.5,7.5" id="Line-Copy-37" sketch:type="MSShapeGroup"></path>
                <path d="M108.5,22.5 L111.5,22.5" id="Line-Copy-38" sketch:type="MSShapeGroup"></path>
            </g>
            <path d="M34.9384766,111.705078 C34.9384766,113.076179 34.5918003,114.154293 33.8984375,114.939453 C33.2050747,115.724613 32.2412171,116.117188 31.0068359,116.117188 C29.7451109,116.117188 28.7714878,115.731449 28.0859375,114.959961 C27.4003872,114.188473 27.0576172,113.099616 27.0576172,111.693359 C27.0576172,110.298821 27.4013638,109.217777 28.0888672,108.450195 C28.7763706,107.682613 29.7529234,107.298828 31.0185547,107.298828 C32.2490296,107.298828 33.2099575,107.689449 33.9013672,108.470703 C34.5927769,109.251957 34.9384766,110.330071 34.9384766,111.705078 L34.9384766,111.705078 Z M28.1123047,111.705078 C28.1123047,112.86524 28.3593725,113.745114 28.8535156,114.344727 C29.3476587,114.944339 30.065425,115.244141 31.0068359,115.244141 C31.9560594,115.244141 32.6728491,114.945315 33.1572266,114.347656 C33.641604,113.749997 33.8837891,112.869146 33.8837891,111.705078 C33.8837891,110.552729 33.6425805,109.678714 33.1601562,109.083008 C32.677732,108.487302 31.9638719,108.189453 31.0185547,108.189453 C30.0693312,108.189453 29.3476587,108.489255 28.8535156,109.088867 C28.3593725,109.68848 28.1123047,110.560541 28.1123047,111.705078 L28.1123047,111.705078 Z M39.6318359,109.460938 C39.9169936,109.460938 40.1728504,109.484375 40.3994141,109.53125 L40.2646484,110.433594 C39.9990221,110.375 39.7646495,110.345703 39.5615234,110.345703 C39.0419896,110.345703 38.5976581,110.556639 38.2285156,110.978516 C37.8593732,111.400393 37.6748047,111.925778 37.6748047,112.554688 L37.6748047,116 L36.7021484,116 L36.7021484,109.578125 L37.5048828,109.578125 L37.6162109,110.767578 L37.6630859,110.767578 C37.9013684,110.349607 38.1884749,110.027345 38.5244141,109.800781 C38.8603532,109.574218 39.2294902,109.460938 39.6318359,109.460938 L39.6318359,109.460938 Z M42.5732422,116 L41.6005859,116 L41.6005859,109.578125 L42.5732422,109.578125 L42.5732422,116 Z M41.5185547,107.837891 C41.5185547,107.615233 41.5732416,107.452149 41.6826172,107.348633 C41.7919927,107.245117 41.9287101,107.193359 42.0927734,107.193359 C42.2490242,107.193359 42.3837885,107.246093 42.4970703,107.351562 C42.6103521,107.457032 42.6669922,107.61914 42.6669922,107.837891 C42.6669922,108.056642 42.6103521,108.219726 42.4970703,108.327148 C42.3837885,108.434571 42.2490242,108.488281 42.0927734,108.488281 C41.9287101,108.488281 41.7919927,108.434571 41.6826172,108.327148 C41.5732416,108.219726 41.5185547,108.056642 41.5185547,107.837891 L41.5185547,107.837891 Z M49.8916016,109.578125 L49.8916016,110.193359 L48.7021484,110.333984 C48.811524,110.470704 48.9091793,110.649413 48.9951172,110.870117 C49.0810551,111.090821 49.1240234,111.339842 49.1240234,111.617188 C49.1240234,112.246097 48.9091818,112.748045 48.4794922,113.123047 C48.0498025,113.498049 47.4599647,113.685547 46.7099609,113.685547 C46.5185537,113.685547 46.338868,113.669922 46.1708984,113.638672 C45.7568339,113.857423 45.5498047,114.132811 45.5498047,114.464844 C45.5498047,114.640626 45.6220696,114.770507 45.7666016,114.854492 C45.9111335,114.938477 46.1591779,114.980469 46.5107422,114.980469 L47.6474609,114.980469 C48.3427769,114.980469 48.8769513,115.126952 49.25,115.419922 C49.6230487,115.712892 49.8095703,116.138669 49.8095703,116.697266 C49.8095703,117.408207 49.5244169,117.950193 48.9541016,118.323242 C48.3837862,118.696291 47.5517633,118.882812 46.4580078,118.882812 C45.6181599,118.882812 44.9707054,118.726564 44.515625,118.414062 C44.0605446,118.101561 43.8330078,117.660159 43.8330078,117.089844 C43.8330078,116.699217 43.9580066,116.36133 44.2080078,116.076172 C44.4580091,115.791014 44.809568,115.597657 45.2626953,115.496094 C45.098632,115.421875 44.9609381,115.306641 44.8496094,115.150391 C44.7382807,114.99414 44.6826172,114.812501 44.6826172,114.605469 C44.6826172,114.371093 44.7451166,114.166017 44.8701172,113.990234 C44.9951178,113.814452 45.1923815,113.644532 45.4619141,113.480469 C45.1298812,113.343749 44.859376,113.11133 44.6503906,112.783203 C44.4414052,112.455076 44.3369141,112.08008 44.3369141,111.658203 C44.3369141,110.955075 44.5478495,110.413088 44.9697266,110.032227 C45.3916037,109.651365 45.9892539,109.460938 46.7626953,109.460938 C47.0986345,109.460938 47.4013658,109.5 47.6708984,109.578125 L49.8916016,109.578125 Z M44.7705078,117.078125 C44.7705078,117.425783 44.9169907,117.689452 45.2099609,117.869141 C45.5029312,118.048829 45.9228488,118.138672 46.4697266,118.138672 C47.2861369,118.138672 47.890623,118.016603 48.2832031,117.772461 C48.6757832,117.528319 48.8720703,117.197268 48.8720703,116.779297 C48.8720703,116.431639 48.7646495,116.19043 48.5498047,116.055664 C48.3349599,115.920898 47.930667,115.853516 47.3369141,115.853516 L46.1708984,115.853516 C45.72949,115.853516 45.3857434,115.958983 45.1396484,116.169922 C44.8935535,116.38086 44.7705078,116.683592 44.7705078,117.078125 L44.7705078,117.078125 Z M45.2978516,111.634766 C45.2978516,112.083987 45.4248034,112.423827 45.6787109,112.654297 C45.9326185,112.884767 46.2861305,113 46.7392578,113 C47.6884813,113 48.1630859,112.539067 48.1630859,111.617188 C48.1630859,110.652339 47.682622,110.169922 46.7216797,110.169922 C46.2646462,110.169922 45.9130872,110.292968 45.6669922,110.539062 C45.4208972,110.785157 45.2978516,111.150388 45.2978516,111.634766 L45.2978516,111.634766 Z M52.1826172,116 L51.2099609,116 L51.2099609,109.578125 L52.1826172,109.578125 L52.1826172,116 Z M51.1279297,107.837891 C51.1279297,107.615233 51.1826166,107.452149 51.2919922,107.348633 C51.4013677,107.245117 51.5380851,107.193359 51.7021484,107.193359 C51.8583992,107.193359 51.9931635,107.246093 52.1064453,107.351562 C52.2197271,107.457032 52.2763672,107.61914 52.2763672,107.837891 C52.2763672,108.056642 52.2197271,108.219726 52.1064453,108.327148 C51.9931635,108.434571 51.8583992,108.488281 51.7021484,108.488281 C51.5380851,108.488281 51.4013677,108.434571 51.2919922,108.327148 C51.1826166,108.219726 51.1279297,108.056642 51.1279297,107.837891 L51.1279297,107.837891 Z M58.6396484,116 L58.6396484,111.845703 C58.6396484,111.322263 58.520509,110.931642 58.2822266,110.673828 C58.0439441,110.416014 57.670901,110.287109 57.1630859,110.287109 C56.4912076,110.287109 55.999025,110.468748 55.6865234,110.832031 C55.3740219,111.195314 55.2177734,111.794918 55.2177734,112.630859 L55.2177734,116 L54.2451172,116 L54.2451172,109.578125 L55.0361328,109.578125 L55.1943359,110.457031 L55.2412109,110.457031 C55.4404307,110.140623 55.7197248,109.895509 56.0791016,109.72168 C56.4384784,109.547851 56.838865,109.460938 57.2802734,109.460938 C58.0537148,109.460938 58.6357402,109.647459 59.0263672,110.020508 C59.4169941,110.393557 59.6123047,110.99023 59.6123047,111.810547 L59.6123047,116 L58.6396484,116 Z M65.5595703,116 L65.3662109,115.085938 L65.3193359,115.085938 C64.9990218,115.488283 64.6796891,115.760741 64.3613281,115.90332 C64.0429672,116.045899 63.6455102,116.117188 63.1689453,116.117188 C62.5322234,116.117188 62.0332049,115.953127 61.671875,115.625 C61.3105451,115.296873 61.1298828,114.830081 61.1298828,114.224609 C61.1298828,112.927728 62.1669818,112.248047 64.2412109,112.185547 L65.3310547,112.150391 L65.3310547,111.751953 C65.3310547,111.248044 65.2226573,110.875978 65.0058594,110.635742 C64.7890614,110.395507 64.4423852,110.275391 63.9658203,110.275391 C63.4306614,110.275391 62.8251987,110.439451 62.1494141,110.767578 L61.8505859,110.023438 C62.1669938,109.851562 62.51367,109.716797 62.890625,109.619141 C63.26758,109.521484 63.6455059,109.472656 64.0244141,109.472656 C64.7900429,109.472656 65.35742,109.642576 65.7265625,109.982422 C66.095705,110.322267 66.2802734,110.867184 66.2802734,111.617188 L66.2802734,116 L65.5595703,116 Z M63.3623047,115.314453 C63.9677765,115.314453 64.4433576,115.148439 64.7890625,114.816406 C65.1347674,114.484373 65.3076172,114.019534 65.3076172,113.421875 L65.3076172,112.841797 L64.3349609,112.882812 C63.5615196,112.910156 63.003908,113.030272 62.6621094,113.243164 C62.3203108,113.456056 62.1494141,113.787107 62.1494141,114.236328 C62.1494141,114.587892 62.2558583,114.855468 62.46875,115.039062 C62.6816417,115.222657 62.9794903,115.314453 63.3623047,115.314453 L63.3623047,115.314453 Z M69.2568359,116 L68.2841797,116 L68.2841797,106.882812 L69.2568359,106.882812 L69.2568359,116 Z M79.4169922,113.720703 C79.4169922,114.474613 79.1435574,115.062498 78.5966797,115.484375 C78.049802,115.906252 77.3076219,116.117188 76.3701172,116.117188 C75.3544871,116.117188 74.5732449,115.986329 74.0263672,115.724609 L74.0263672,114.763672 C74.3779314,114.91211 74.7607401,115.029296 75.1748047,115.115234 C75.5888693,115.201172 75.9990214,115.244141 76.4052734,115.244141 C77.0693393,115.244141 77.5693343,115.118165 77.9052734,114.866211 C78.2412126,114.614257 78.4091797,114.263674 78.4091797,113.814453 C78.4091797,113.517577 78.34961,113.274415 78.2304688,113.084961 C78.1113275,112.895507 77.9121108,112.720704 77.6328125,112.560547 C77.3535142,112.40039 76.9287138,112.218751 76.3583984,112.015625 C75.5615195,111.730467 74.9921892,111.39258 74.6503906,111.001953 C74.308592,110.611326 74.1376953,110.101566 74.1376953,109.472656 C74.1376953,108.812497 74.3857397,108.287111 74.8818359,107.896484 C75.3779322,107.505857 76.0341756,107.310547 76.8505859,107.310547 C77.7021527,107.310547 78.485348,107.466795 79.2001953,107.779297 L78.8896484,108.646484 C78.1826137,108.349608 77.4951205,108.201172 76.8271484,108.201172 C76.2998021,108.201172 75.8876968,108.314452 75.5908203,108.541016 C75.2939438,108.767579 75.1455078,109.082029 75.1455078,109.484375 C75.1455078,109.781251 75.2001948,110.024413 75.3095703,110.213867 C75.4189459,110.403321 75.6035143,110.577148 75.8632812,110.735352 C76.1230482,110.893555 76.5205051,111.068358 77.0556641,111.259766 C77.9541061,111.58008 78.5722639,111.923826 78.9101562,112.291016 C79.2480486,112.658205 79.4169922,113.134763 79.4169922,113.720703 L79.4169922,113.720703 Z M81.9951172,116 L81.0224609,116 L81.0224609,109.578125 L81.9951172,109.578125 L81.9951172,116 Z M80.9404297,107.837891 C80.9404297,107.615233 80.9951166,107.452149 81.1044922,107.348633 C81.2138677,107.245117 81.3505851,107.193359 81.5146484,107.193359 C81.6708992,107.193359 81.8056635,107.246093 81.9189453,107.351562 C82.0322271,107.457032 82.0888672,107.61914 82.0888672,107.837891 C82.0888672,108.056642 82.0322271,108.219726 81.9189453,108.327148 C81.8056635,108.434571 81.6708992,108.488281 81.5146484,108.488281 C81.3505851,108.488281 81.2138677,108.434571 81.1044922,108.327148 C80.9951166,108.219726 80.9404297,108.056642 80.9404297,107.837891 L80.9404297,107.837891 Z M89.3134766,109.578125 L89.3134766,110.193359 L88.1240234,110.333984 C88.233399,110.470704 88.3310543,110.649413 88.4169922,110.870117 C88.5029301,111.090821 88.5458984,111.339842 88.5458984,111.617188 C88.5458984,112.246097 88.3310568,112.748045 87.9013672,113.123047 C87.4716775,113.498049 86.8818397,113.685547 86.1318359,113.685547 C85.9404287,113.685547 85.760743,113.669922 85.5927734,113.638672 C85.1787089,113.857423 84.9716797,114.132811 84.9716797,114.464844 C84.9716797,114.640626 85.0439446,114.770507 85.1884766,114.854492 C85.3330085,114.938477 85.5810529,114.980469 85.9326172,114.980469 L87.0693359,114.980469 C87.7646519,114.980469 88.2988263,115.126952 88.671875,115.419922 C89.0449237,115.712892 89.2314453,116.138669 89.2314453,116.697266 C89.2314453,117.408207 88.9462919,117.950193 88.3759766,118.323242 C87.8056612,118.696291 86.9736383,118.882812 85.8798828,118.882812 C85.0400349,118.882812 84.3925804,118.726564 83.9375,118.414062 C83.4824196,118.101561 83.2548828,117.660159 83.2548828,117.089844 C83.2548828,116.699217 83.3798816,116.36133 83.6298828,116.076172 C83.8798841,115.791014 84.231443,115.597657 84.6845703,115.496094 C84.520507,115.421875 84.3828131,115.306641 84.2714844,115.150391 C84.1601557,114.99414 84.1044922,114.812501 84.1044922,114.605469 C84.1044922,114.371093 84.1669916,114.166017 84.2919922,113.990234 C84.4169928,113.814452 84.6142565,113.644532 84.8837891,113.480469 C84.5517562,113.343749 84.281251,113.11133 84.0722656,112.783203 C83.8632802,112.455076 83.7587891,112.08008 83.7587891,111.658203 C83.7587891,110.955075 83.9697245,110.413088 84.3916016,110.032227 C84.8134787,109.651365 85.4111289,109.460938 86.1845703,109.460938 C86.5205095,109.460938 86.8232408,109.5 87.0927734,109.578125 L89.3134766,109.578125 Z M84.1923828,117.078125 C84.1923828,117.425783 84.3388657,117.689452 84.6318359,117.869141 C84.9248062,118.048829 85.3447238,118.138672 85.8916016,118.138672 C86.7080119,118.138672 87.312498,118.016603 87.7050781,117.772461 C88.0976582,117.528319 88.2939453,117.197268 88.2939453,116.779297 C88.2939453,116.431639 88.1865245,116.19043 87.9716797,116.055664 C87.7568349,115.920898 87.352542,115.853516 86.7587891,115.853516 L85.5927734,115.853516 C85.151365,115.853516 84.8076184,115.958983 84.5615234,116.169922 C84.3154285,116.38086 84.1923828,116.683592 84.1923828,117.078125 L84.1923828,117.078125 Z M84.7197266,111.634766 C84.7197266,112.083987 84.8466784,112.423827 85.1005859,112.654297 C85.3544935,112.884767 85.7080055,113 86.1611328,113 C87.1103563,113 87.5849609,112.539067 87.5849609,111.617188 C87.5849609,110.652339 87.104497,110.169922 86.1435547,110.169922 C85.6865212,110.169922 85.3349622,110.292968 85.0888672,110.539062 C84.8427722,110.785157 84.7197266,111.150388 84.7197266,111.634766 L84.7197266,111.634766 Z M95.0263672,116 L95.0263672,111.845703 C95.0263672,111.322263 94.9072278,110.931642 94.6689453,110.673828 C94.4306629,110.416014 94.0576197,110.287109 93.5498047,110.287109 C92.8779263,110.287109 92.3857438,110.468748 92.0732422,110.832031 C91.7607406,111.195314 91.6044922,111.794918 91.6044922,112.630859 L91.6044922,116 L90.6318359,116 L90.6318359,109.578125 L91.4228516,109.578125 L91.5810547,110.457031 L91.6279297,110.457031 C91.8271494,110.140623 92.1064435,109.895509 92.4658203,109.72168 C92.8251971,109.547851 93.2255837,109.460938 93.6669922,109.460938 C94.4404336,109.460938 95.022459,109.647459 95.4130859,110.020508 C95.8037129,110.393557 95.9990234,110.99023 95.9990234,111.810547 L95.9990234,116 L95.0263672,116 Z M101.946289,116 L101.75293,115.085938 L101.706055,115.085938 C101.385741,115.488283 101.066408,115.760741 100.748047,115.90332 C100.429686,116.045899 100.032229,116.117188 99.5556641,116.117188 C98.9189421,116.117188 98.4199237,115.953127 98.0585938,115.625 C97.6972638,115.296873 97.5166016,114.830081 97.5166016,114.224609 C97.5166016,112.927728 98.5537006,112.248047 100.62793,112.185547 L101.717773,112.150391 L101.717773,111.751953 C101.717773,111.248044 101.609376,110.875978 101.392578,110.635742 C101.17578,110.395507 100.829104,110.275391 100.352539,110.275391 C99.8173801,110.275391 99.2119174,110.439451 98.5361328,110.767578 L98.2373047,110.023438 C98.5537125,109.851562 98.9003887,109.716797 99.2773438,109.619141 C99.6542988,109.521484 100.032225,109.472656 100.411133,109.472656 C101.176762,109.472656 101.744139,109.642576 102.113281,109.982422 C102.482424,110.322267 102.666992,110.867184 102.666992,111.617188 L102.666992,116 L101.946289,116 Z M99.7490234,115.314453 C100.354495,115.314453 100.830076,115.148439 101.175781,114.816406 C101.521486,114.484373 101.694336,114.019534 101.694336,113.421875 L101.694336,112.841797 L100.72168,112.882812 C99.9482383,112.910156 99.3906267,113.030272 99.0488281,113.243164 C98.7070295,113.456056 98.5361328,113.787107 98.5361328,114.236328 C98.5361328,114.587892 98.6425771,114.855468 98.8554688,115.039062 C99.0683604,115.222657 99.366209,115.314453 99.7490234,115.314453 L99.7490234,115.314453 Z M105.643555,116 L104.670898,116 L104.670898,106.882812 L105.643555,106.882812 L105.643555,116 Z" id="Original-Signal" fill="#333333" sketch:type="MSShapeGroup"></path>
            <path d="M145.384766,107.433594 L147.804688,107.433594 C148.941412,107.433594 149.763669,107.603514 150.271484,107.943359 C150.779299,108.283205 151.033203,108.820309 151.033203,109.554688 C151.033203,110.062503 150.891603,110.481444 150.608398,110.811523 C150.325194,111.141603 149.912112,111.355468 149.369141,111.453125 L149.369141,111.511719 C150.669928,111.734376 151.320312,112.417963 151.320312,113.5625 C151.320312,114.328129 151.061526,114.925779 150.543945,115.355469 C150.026365,115.785158 149.302739,116 148.373047,116 L145.384766,116 L145.384766,107.433594 Z M146.380859,111.101562 L148.021484,111.101562 C148.724613,111.101562 149.230467,110.991212 149.539062,110.770508 C149.847658,110.549804 150.001953,110.177737 150.001953,109.654297 C150.001953,109.173826 149.83008,108.82715 149.486328,108.614258 C149.142576,108.401366 148.595707,108.294922 147.845703,108.294922 L146.380859,108.294922 L146.380859,111.101562 Z M146.380859,111.945312 L146.380859,115.150391 L148.167969,115.150391 C148.859378,115.150391 149.379881,115.016603 149.729492,114.749023 C150.079103,114.481444 150.253906,114.062503 150.253906,113.492188 C150.253906,112.960935 150.075197,112.570314 149.717773,112.320312 C149.36035,112.070311 148.81641,111.945312 148.085938,111.945312 L146.380859,111.945312 Z M153.986328,116 L153.013672,116 L153.013672,109.578125 L153.986328,109.578125 L153.986328,116 Z M152.931641,107.837891 C152.931641,107.615233 152.986328,107.452149 153.095703,107.348633 C153.205079,107.245117 153.341796,107.193359 153.505859,107.193359 C153.66211,107.193359 153.796874,107.246093 153.910156,107.351562 C154.023438,107.457032 154.080078,107.61914 154.080078,107.837891 C154.080078,108.056642 154.023438,108.219726 153.910156,108.327148 C153.796874,108.434571 153.66211,108.488281 153.505859,108.488281 C153.341796,108.488281 153.205079,108.434571 153.095703,108.327148 C152.986328,108.219726 152.931641,108.056642 152.931641,107.837891 L152.931641,107.837891 Z M158.123047,115.314453 C158.294923,115.314453 158.460937,115.301758 158.621094,115.276367 C158.781251,115.250976 158.908203,115.22461 159.001953,115.197266 L159.001953,115.941406 C158.896484,115.992188 158.741212,116.03418 158.536133,116.067383 C158.331054,116.100586 158.146485,116.117188 157.982422,116.117188 C156.740228,116.117188 156.119141,115.462897 156.119141,114.154297 L156.119141,110.333984 L155.199219,110.333984 L155.199219,109.865234 L156.119141,109.460938 L156.529297,108.089844 L157.091797,108.089844 L157.091797,109.578125 L158.955078,109.578125 L158.955078,110.333984 L157.091797,110.333984 L157.091797,114.113281 C157.091797,114.500002 157.183593,114.796874 157.367188,115.003906 C157.550782,115.210939 157.802733,115.314453 158.123047,115.314453 L158.123047,115.314453 Z M162.851562,116.117188 C161.92187,116.117188 161.202151,115.831058 160.692383,115.258789 C160.182615,114.686521 159.927734,113.876958 159.927734,112.830078 C159.927734,111.755854 160.186521,110.925784 160.704102,110.339844 C161.221682,109.753903 161.95898,109.460938 162.916016,109.460938 C163.224611,109.460938 163.533202,109.49414 163.841797,109.560547 C164.150392,109.626953 164.392577,109.705078 164.568359,109.794922 L164.269531,110.621094 C164.054686,110.535156 163.820314,110.463867 163.566406,110.407227 C163.312499,110.350586 163.087892,110.322266 162.892578,110.322266 C161.587884,110.322266 160.935547,111.154289 160.935547,112.818359 C160.935547,113.607426 161.094725,114.212889 161.413086,114.634766 C161.731447,115.056643 162.203122,115.267578 162.828125,115.267578 C163.363284,115.267578 163.912107,115.152345 164.474609,114.921875 L164.474609,115.783203 C164.04492,116.00586 163.50391,116.117188 162.851562,116.117188 L162.851562,116.117188 Z M168.927734,109.460938 C169.212892,109.460938 169.468749,109.484375 169.695312,109.53125 L169.560547,110.433594 C169.294921,110.375 169.060548,110.345703 168.857422,110.345703 C168.337888,110.345703 167.893557,110.556639 167.524414,110.978516 C167.155272,111.400393 166.970703,111.925778 166.970703,112.554688 L166.970703,116 L165.998047,116 L165.998047,109.578125 L166.800781,109.578125 L166.912109,110.767578 L166.958984,110.767578 C167.197267,110.349607 167.484373,110.027345 167.820312,109.800781 C168.156252,109.574218 168.525389,109.460938 168.927734,109.460938 L168.927734,109.460938 Z M171.810547,109.578125 L171.810547,113.744141 C171.810547,114.267581 171.929686,114.658202 172.167969,114.916016 C172.406251,115.173829 172.779294,115.302734 173.287109,115.302734 C173.958988,115.302734 174.450194,115.119142 174.760742,114.751953 C175.071291,114.384764 175.226562,113.78516 175.226562,112.953125 L175.226562,109.578125 L176.199219,109.578125 L176.199219,116 L175.396484,116 L175.255859,115.138672 L175.203125,115.138672 C175.003905,115.45508 174.727541,115.697265 174.374023,115.865234 C174.020506,116.033204 173.61719,116.117188 173.164062,116.117188 C172.382809,116.117188 171.797854,115.931642 171.40918,115.560547 C171.020506,115.189451 170.826172,114.595707 170.826172,113.779297 L170.826172,109.578125 L171.810547,109.578125 Z M182.404297,114.248047 C182.404297,114.845706 182.181643,115.306639 181.736328,115.630859 C181.291013,115.95508 180.66602,116.117188 179.861328,116.117188 C179.009761,116.117188 178.345706,115.982423 177.869141,115.712891 L177.869141,114.810547 C178.177736,114.966798 178.508787,115.089843 178.862305,115.179688 C179.215822,115.269532 179.556639,115.314453 179.884766,115.314453 C180.392581,115.314453 180.783202,115.233399 181.056641,115.071289 C181.330079,114.909179 181.466797,114.662111 181.466797,114.330078 C181.466797,114.080077 181.3584,113.866212 181.141602,113.688477 C180.924804,113.510741 180.501956,113.300782 179.873047,113.058594 C179.275388,112.835936 178.850587,112.641602 178.598633,112.475586 C178.346678,112.309569 178.15918,112.121095 178.036133,111.910156 C177.913085,111.699218 177.851562,111.447267 177.851562,111.154297 C177.851562,110.630857 178.064451,110.217775 178.490234,109.915039 C178.916018,109.612303 179.499996,109.460938 180.242188,109.460938 C180.933597,109.460938 181.609372,109.601561 182.269531,109.882812 L181.923828,110.673828 C181.279294,110.408202 180.695315,110.275391 180.171875,110.275391 C179.710935,110.275391 179.363282,110.347656 179.128906,110.492188 C178.89453,110.636719 178.777344,110.835936 178.777344,111.089844 C178.777344,111.26172 178.821289,111.408203 178.90918,111.529297 C178.997071,111.650391 179.138671,111.765624 179.333984,111.875 C179.529298,111.984376 179.904294,112.142577 180.458984,112.349609 C181.220707,112.626955 181.73535,112.906249 182.00293,113.1875 C182.270509,113.468751 182.404297,113.822263 182.404297,114.248047 L182.404297,114.248047 Z M188.380859,116 L188.380859,111.845703 C188.380859,111.322263 188.26172,110.931642 188.023438,110.673828 C187.785155,110.416014 187.412112,110.287109 186.904297,110.287109 C186.228512,110.287109 185.735353,110.470701 185.424805,110.837891 C185.114256,111.20508 184.958984,111.806636 184.958984,112.642578 L184.958984,116 L183.986328,116 L183.986328,106.882812 L184.958984,106.882812 L184.958984,109.642578 C184.958984,109.974611 184.94336,110.249999 184.912109,110.46875 L184.970703,110.46875 C185.16211,110.160155 185.434569,109.916993 185.788086,109.739258 C186.141603,109.561523 186.54492,109.472656 186.998047,109.472656 C187.783207,109.472656 188.372068,109.659178 188.764648,110.032227 C189.157229,110.405275 189.353516,110.998043 189.353516,111.810547 L189.353516,116 L188.380859,116 Z M194.064453,116.117188 C193.11523,116.117188 192.366214,115.828128 191.817383,115.25 C191.268552,114.671872 190.994141,113.869146 190.994141,112.841797 C190.994141,111.806635 191.249021,110.984378 191.758789,110.375 C192.268557,109.765622 192.953121,109.460938 193.8125,109.460938 C194.617192,109.460938 195.253904,109.725583 195.722656,110.254883 C196.191409,110.784182 196.425781,111.482418 196.425781,112.349609 L196.425781,112.964844 L192.001953,112.964844 C192.021484,113.718754 192.211912,114.291014 192.573242,114.681641 C192.934572,115.072268 193.443356,115.267578 194.099609,115.267578 C194.791019,115.267578 195.474606,115.123048 196.150391,114.833984 L196.150391,115.701172 C195.806639,115.84961 195.481447,115.956054 195.174805,116.020508 C194.868163,116.084961 194.498049,116.117188 194.064453,116.117188 L194.064453,116.117188 Z M193.800781,110.275391 C193.285154,110.275391 192.874025,110.443358 192.567383,110.779297 C192.260741,111.115236 192.080078,111.580075 192.025391,112.173828 L195.382812,112.173828 C195.382812,111.560544 195.246095,111.090822 194.972656,110.764648 C194.699217,110.438475 194.308596,110.275391 193.800781,110.275391 L193.800781,110.275391 Z M202.455078,115.138672 L202.402344,115.138672 C201.953123,115.791019 201.281254,116.117188 200.386719,116.117188 C199.546871,116.117188 198.893557,115.830081 198.426758,115.255859 C197.959959,114.681638 197.726562,113.86524 197.726562,112.806641 C197.726562,111.748042 197.960935,110.925784 198.429688,110.339844 C198.89844,109.753903 199.550777,109.460938 200.386719,109.460938 C201.257817,109.460938 201.925779,109.777341 202.390625,110.410156 L202.466797,110.410156 L202.425781,109.947266 L202.402344,109.496094 L202.402344,106.882812 L203.375,106.882812 L203.375,116 L202.583984,116 L202.455078,115.138672 Z M200.509766,115.302734 C201.173831,115.302734 201.655272,115.122072 201.954102,114.760742 C202.252931,114.399412 202.402344,113.81641 202.402344,113.011719 L202.402344,112.806641 C202.402344,111.89648 202.250978,111.247072 201.948242,110.858398 C201.645506,110.469725 201.162113,110.275391 200.498047,110.275391 C199.927732,110.275391 199.491212,110.497068 199.188477,110.94043 C198.885741,111.383791 198.734375,112.009762 198.734375,112.818359 C198.734375,113.638676 198.884764,114.25781 199.185547,114.675781 C199.48633,115.093752 199.927731,115.302734 200.509766,115.302734 L200.509766,115.302734 Z M213.535156,113.720703 C213.535156,114.474613 213.261721,115.062498 212.714844,115.484375 C212.167966,115.906252 211.425786,116.117188 210.488281,116.117188 C209.472651,116.117188 208.691409,115.986329 208.144531,115.724609 L208.144531,114.763672 C208.496096,114.91211 208.878904,115.029296 209.292969,115.115234 C209.707033,115.201172 210.117185,115.244141 210.523438,115.244141 C211.187503,115.244141 211.687498,115.118165 212.023438,114.866211 C212.359377,114.614257 212.527344,114.263674 212.527344,113.814453 C212.527344,113.517577 212.467774,113.274415 212.348633,113.084961 C212.229492,112.895507 212.030275,112.720704 211.750977,112.560547 C211.471678,112.40039 211.046878,112.218751 210.476562,112.015625 C209.679684,111.730467 209.110353,111.39258 208.768555,111.001953 C208.426756,110.611326 208.255859,110.101566 208.255859,109.472656 C208.255859,108.812497 208.503904,108.287111 209,107.896484 C209.496096,107.505857 210.15234,107.310547 210.96875,107.310547 C211.820317,107.310547 212.603512,107.466795 213.318359,107.779297 L213.007812,108.646484 C212.300778,108.349608 211.613285,108.201172 210.945312,108.201172 C210.417966,108.201172 210.005861,108.314452 209.708984,108.541016 C209.412108,108.767579 209.263672,109.082029 209.263672,109.484375 C209.263672,109.781251 209.318359,110.024413 209.427734,110.213867 C209.53711,110.403321 209.721678,110.577148 209.981445,110.735352 C210.241212,110.893555 210.638669,111.068358 211.173828,111.259766 C212.07227,111.58008 212.690428,111.923826 213.02832,112.291016 C213.366213,112.658205 213.535156,113.134763 213.535156,113.720703 L213.535156,113.720703 Z M216.113281,116 L215.140625,116 L215.140625,109.578125 L216.113281,109.578125 L216.113281,116 Z M215.058594,107.837891 C215.058594,107.615233 215.113281,107.452149 215.222656,107.348633 C215.332032,107.245117 215.468749,107.193359 215.632812,107.193359 C215.789063,107.193359 215.923828,107.246093 216.037109,107.351562 C216.150391,107.457032 216.207031,107.61914 216.207031,107.837891 C216.207031,108.056642 216.150391,108.219726 216.037109,108.327148 C215.923828,108.434571 215.789063,108.488281 215.632812,108.488281 C215.468749,108.488281 215.332032,108.434571 215.222656,108.327148 C215.113281,108.219726 215.058594,108.056642 215.058594,107.837891 L215.058594,107.837891 Z M223.431641,109.578125 L223.431641,110.193359 L222.242188,110.333984 C222.351563,110.470704 222.449218,110.649413 222.535156,110.870117 C222.621094,111.090821 222.664062,111.339842 222.664062,111.617188 C222.664062,112.246097 222.449221,112.748045 222.019531,113.123047 C221.589842,113.498049 221.000004,113.685547 220.25,113.685547 C220.058593,113.685547 219.878907,113.669922 219.710938,113.638672 C219.296873,113.857423 219.089844,114.132811 219.089844,114.464844 C219.089844,114.640626 219.162109,114.770507 219.306641,114.854492 C219.451173,114.938477 219.699217,114.980469 220.050781,114.980469 L221.1875,114.980469 C221.882816,114.980469 222.41699,115.126952 222.790039,115.419922 C223.163088,115.712892 223.349609,116.138669 223.349609,116.697266 C223.349609,117.408207 223.064456,117.950193 222.494141,118.323242 C221.923825,118.696291 221.091802,118.882812 219.998047,118.882812 C219.158199,118.882812 218.510744,118.726564 218.055664,118.414062 C217.600584,118.101561 217.373047,117.660159 217.373047,117.089844 C217.373047,116.699217 217.498046,116.36133 217.748047,116.076172 C217.998048,115.791014 218.349607,115.597657 218.802734,115.496094 C218.638671,115.421875 218.500977,115.306641 218.389648,115.150391 C218.27832,114.99414 218.222656,114.812501 218.222656,114.605469 C218.222656,114.371093 218.285156,114.166017 218.410156,113.990234 C218.535157,113.814452 218.732421,113.644532 219.001953,113.480469 C218.66992,113.343749 218.399415,113.11133 218.19043,112.783203 C217.981444,112.455076 217.876953,112.08008 217.876953,111.658203 C217.876953,110.955075 218.087889,110.413088 218.509766,110.032227 C218.931643,109.651365 219.529293,109.460938 220.302734,109.460938 C220.638674,109.460938 220.941405,109.5 221.210938,109.578125 L223.431641,109.578125 Z M218.310547,117.078125 C218.310547,117.425783 218.45703,117.689452 218.75,117.869141 C219.04297,118.048829 219.462888,118.138672 220.009766,118.138672 C220.826176,118.138672 221.430662,118.016603 221.823242,117.772461 C222.215822,117.528319 222.412109,117.197268 222.412109,116.779297 C222.412109,116.431639 222.304689,116.19043 222.089844,116.055664 C221.874999,115.920898 221.470706,115.853516 220.876953,115.853516 L219.710938,115.853516 C219.269529,115.853516 218.925782,115.958983 218.679688,116.169922 C218.433593,116.38086 218.310547,116.683592 218.310547,117.078125 L218.310547,117.078125 Z M218.837891,111.634766 C218.837891,112.083987 218.964842,112.423827 219.21875,112.654297 C219.472658,112.884767 219.82617,113 220.279297,113 C221.22852,113 221.703125,112.539067 221.703125,111.617188 C221.703125,110.652339 221.222661,110.169922 220.261719,110.169922 C219.804685,110.169922 219.453126,110.292968 219.207031,110.539062 C218.960936,110.785157 218.837891,111.150388 218.837891,111.634766 L218.837891,111.634766 Z M229.144531,116 L229.144531,111.845703 C229.144531,111.322263 229.025392,110.931642 228.787109,110.673828 C228.548827,110.416014 228.175784,110.287109 227.667969,110.287109 C226.99609,110.287109 226.503908,110.468748 226.191406,110.832031 C225.878905,111.195314 225.722656,111.794918 225.722656,112.630859 L225.722656,116 L224.75,116 L224.75,109.578125 L225.541016,109.578125 L225.699219,110.457031 L225.746094,110.457031 C225.945313,110.140623 226.224608,109.895509 226.583984,109.72168 C226.943361,109.547851 227.343748,109.460938 227.785156,109.460938 C228.558598,109.460938 229.140623,109.647459 229.53125,110.020508 C229.921877,110.393557 230.117188,110.99023 230.117188,111.810547 L230.117188,116 L229.144531,116 Z M236.064453,116 L235.871094,115.085938 L235.824219,115.085938 C235.503905,115.488283 235.184572,115.760741 234.866211,115.90332 C234.54785,116.045899 234.150393,116.117188 233.673828,116.117188 C233.037106,116.117188 232.538088,115.953127 232.176758,115.625 C231.815428,115.296873 231.634766,114.830081 231.634766,114.224609 C231.634766,112.927728 232.671865,112.248047 234.746094,112.185547 L235.835938,112.150391 L235.835938,111.751953 C235.835938,111.248044 235.72754,110.875978 235.510742,110.635742 C235.293944,110.395507 234.947268,110.275391 234.470703,110.275391 C233.935544,110.275391 233.330082,110.439451 232.654297,110.767578 L232.355469,110.023438 C232.671877,109.851562 233.018553,109.716797 233.395508,109.619141 C233.772463,109.521484 234.150389,109.472656 234.529297,109.472656 C235.294926,109.472656 235.862303,109.642576 236.231445,109.982422 C236.600588,110.322267 236.785156,110.867184 236.785156,111.617188 L236.785156,116 L236.064453,116 Z M233.867188,115.314453 C234.472659,115.314453 234.94824,115.148439 235.293945,114.816406 C235.63965,114.484373 235.8125,114.019534 235.8125,113.421875 L235.8125,112.841797 L234.839844,112.882812 C234.066402,112.910156 233.508791,113.030272 233.166992,113.243164 C232.825194,113.456056 232.654297,113.787107 232.654297,114.236328 C232.654297,114.587892 232.760741,114.855468 232.973633,115.039062 C233.186525,115.222657 233.484373,115.314453 233.867188,115.314453 L233.867188,115.314453 Z M239.761719,116 L238.789062,116 L238.789062,106.882812 L239.761719,106.882812 L239.761719,116 Z" id="Bitcrushed-Signal" fill="#333333" sketch:type="MSShapeGroup"></path>
        </g>
    </g>
</svg>